<?xml version="1.0" encoding="utf-8"?>
<!-- Generator: Adobe Illustrator 21.1.0, SVG Export Plug-In . SVG Version: 6.00 Build 0)  -->
<svg version="1.1" id="Layer_1" xmlns="http://www.w3.org/2000/svg" xmlns:xlink="http://www.w3.org/1999/xlink" x="0px" y="0px"
	 viewBox="0 0 64 64" style="enable-background:new 0 0 64 64;" xml:space="preserve">
<style type="text/css">
	.st0{fill:#FFFFFF;}
	.st1{fill:#ACBDC5;}
	.st2{fill-rule:evenodd;clip-rule:evenodd;fill:#314A52;}
</style>
<g id="Rook-White">
	<path class="st0" d="M18,2h-8v13c0,3.9,3.1,7,7,7h1l-1.4,12.6c-0.4,3.6-1.6,7-3.4,10.1L10,50h36V22h1c3.9,0,7-3.1,7-7V2h-8v4h-8V2
		H26v4h-8V2z"/>
	<path class="st1" d="M20,0H8v15c0,4.6,3.5,8.4,8,8.9v3.9c0,6.1-2,12.1-5.7,17l-2.3,3V56c0,4.4,3.6,8,8,8h30c4.4,0,8-3.6,8-8v-8
		l-6-8l-2-20H36v8.4c0,6.4,1.2,12.7,3.6,18.6L40,48H12.9l0.6-0.7c4.2-5.6,6.5-12.4,6.5-19.4V20h-3c-2.8,0-5-2.2-5-5V4h4v2h4V0z"/>
	<path class="st2" d="M24,0h16v4h4V0h12v15c0,4.6-3.5,8.4-8,8.9v3.9c0,6.1,2,12.1,5.7,17l2.3,3V56c0,4.4-3.6,8-8,8h-4v-4h4
		c2.2,0,4-1.8,4-4v-6.8l-1.5-1.9C46.3,41.7,44,34.9,44,27.9V20h3c2.8,0,5-2.2,5-5V4h-4v4H36V4h-8v4H16V4h8V0z"/>
</g>
</svg>
