<?xml version="1.0" encoding="utf-8"?>
<!-- Generator: Adobe Illustrator 21.1.0, SVG Export Plug-In . SVG Version: 6.00 Build 0)  -->
<svg version="1.1" id="Layer_1" xmlns="http://www.w3.org/2000/svg" xmlns:xlink="http://www.w3.org/1999/xlink" x="0px" y="0px"
	 viewBox="0 0 64 64" style="enable-background:new 0 0 64 64;" xml:space="preserve">
<style type="text/css">
	.st0{fill:#FFFFFF;}
	.st1{fill:#ACBDC5;}
	.st2{fill:#314A52;}
</style>
<g id="Queen-White">
	<polygon class="st0" points="6,36 6,14 12,26 16,26 22,10 32,22 42,10 47,26 50,26 50,50 10,50 	"/>
	<path class="st1" d="M23.3,11.9C26,11.3,28,8.9,28,6c0-3.3-2.7-6-6-6c-3.3,0-6,2.7-6,6c0,2.3,1.3,4.4,3.3,5.4l-2.7,11.2
		c-0.4,1.8-2.9,2.1-3.7,0.4l-2.5-4.9c1-1.1,1.6-2.5,1.6-4.1c0-3.3-2.7-6-6-6c-3.3,0-6,2.7-6,6c0,2.6,1.7,4.8,4,5.7v11.2
		c0,6.3,1.4,12.4,4,18.1V56c0,4.4,3.6,8,8,8h32c4.4,0,8-3.6,8-8V44l2-12V20l-10,6v2c0,11-14.3,20-32,20h-4l-0.3-0.6
		C9.3,42.2,8,36.6,8,30.8v-8.6l1.3,2.5c2.5,5,9.9,4.1,11.2-1.3L23.3,11.9z"/>
	<path class="st2" d="M44.7,11.4c2-1,3.3-3,3.3-5.4c0-3.3-2.7-6-6-6c-3.3,0-6,2.7-6,6c0,1.7,0.7,3.2,1.8,4.3l-4,8.6
		c-0.7,1.5-2.9,1.5-3.6,0l-4-8.6c-0.8,0.8-1.8,1.4-2.9,1.6l-0.2,1l3.5,7.6c2.1,4.6,8.7,4.6,10.9,0l3.5-7.6l2.6,10.6
		c1.3,5.4,8.6,6.3,11.2,1.3l1.3-2.5v8.6c0,5.7-1.3,11.4-3.7,16.6L52,48.1V56c0,2.2-1.8,4-4,4h-4v4h4c4.4,0,8-3.6,8-8v-7.1
		c2.6-5.7,4-11.9,4-18.1V19.7c2.3-0.8,4-3,4-5.7c0-3.3-2.7-6-6-6c-3.3,0-6,2.7-6,6c0,1.6,0.6,3,1.6,4.1L51.1,23
		c-0.8,1.7-3.3,1.4-3.7-0.4L44.7,11.4z"/>
</g>
</svg>
