<?xml version="1.0" encoding="utf-8"?>
<!-- Generator: Adobe Illustrator 21.1.0, SVG Export Plug-In . SVG Version: 6.00 Build 0)  -->
<svg version="1.1" id="Layer_1" xmlns="http://www.w3.org/2000/svg" xmlns:xlink="http://www.w3.org/1999/xlink" x="0px" y="0px"
	 viewBox="0 0 64 64" style="enable-background:new 0 0 64 64;" xml:space="preserve">
<style type="text/css">
	.st0{fill:#FFFFFF;}
	.st1{fill:#ACBDC5;}
	.st2{fill:#314A52;}
</style>
<g id="Pawn-White">
	<path class="st0" d="M38,20c2.4-1.8,4-4.7,4-8c0-5.5-4.5-10-10-10c-5.5,0-10,4.5-10,10c0,3.3,1.6,6.2,4,8h-7v6h7l-3.5,13.5L10,50
		h28V26h7v-6H38z"/>
	<path class="st1" d="M20,24c0-2.2,1.8-4,4-4h4v-4h-4c-4.4,0-8,3.6-8,8v4h7.9c-0.6,7-4.7,13.4-11.1,16.7L8,47.3V56c0,4.4,3.6,8,8,8
		h32c4.4,0,8-3.6,8-8v-8l-15-8l-3-16h-6v7.7c0,5.4,1.3,10.8,3.7,15.7L36,48H15.2C23.1,43.6,28,35.2,28,26.2V24H20z"/>
	<path class="st2" d="M32,0c6.6,0,12,5.4,12,12c0,1.5-0.3,3-0.8,4.3C46,17.3,48,19.9,48,23v5h-7.9c0.6,7,4.7,13.4,11.1,16.7l4.9,2.6
		V56c0,4.4-3.6,8-8,8h-4v-4h4c2.2,0,4-1.8,4-4v-6.3l-2.7-1.4C41.1,43.9,36,35.4,36,26.2V24h8v-1c0-1.7-1.3-3-3-3h-5l2.4-3.2
		c1-1.3,1.6-3,1.6-4.8c0-4.4-3.6-8-8-8c-4.4,0-8,3.6-8,8c0,1.5,0.4,2.8,1.1,4H24c-1.1,0-2.1,0.2-3.1,0.6c-0.6-1.4-0.9-3-0.9-4.6
		C20,5.4,25.4,0,32,0z"/>
</g>
</svg>
