<?xml version="1.0" encoding="utf-8"?>
<!-- Generator: Adobe Illustrator 21.1.0, SVG Export Plug-In . SVG Version: 6.00 Build 0)  -->
<svg version="1.1" id="Layer_1" xmlns="http://www.w3.org/2000/svg" xmlns:xlink="http://www.w3.org/1999/xlink" x="0px" y="0px"
	 viewBox="0 0 64 64" style="enable-background:new 0 0 64 64;" xml:space="preserve">
<style type="text/css">
	.st0{fill:#FFFFFF;}
	.st1{fill:#ACBDC5;}
	.st2{fill:#314A52;}
</style>
<g id="Bishop-White">
	<polygon class="st0" points="32,7 50,25 46,50 20,50 10,40 10,29 	"/>
	<path class="st1" d="M33.4,8.2L15.2,26.5c-4.3,4.3-4.3,11.3,0,15.6l5.9,5.9H24c13.3,0,24-10.1,24-22.5V22l6,14l-6,12v8h8
		c2.2,0,4,1.8,4,4v2h-4v2H40c-4.4,0-8-3.6-8-8c0,4.4-3.6,8-8,8H4v-4c0-2.2,1.8-4,4-4h8v-7.4l-3.6-3.6c-5.8-5.9-5.8-15.3,0-21.2
		L30.6,5.4L33.4,8.2z"/>
	<path class="st2" d="M51.6,23.7c5.8,5.9,5.8,15.3,0,21.2L48,48.6V56h-4v-9.1l4.8-4.8c4.3-4.3,4.3-11.3,0-15.6L29.1,6.7l0,0
		C28.4,6,28,5.1,28,4c0-2.2,1.8-4,4-4c2.2,0,4,1.8,4,4c0,1.1-0.5,2.1-1.2,2.8L51.6,23.7z M30,26v6h-6v4h6v6h4v-6h6v-4h-6v-6H30z
		 M32,56c0,4.4,3.6,8,8,8h20v-4H40c-2.2,0-4-1.8-4-4H32z"/>
</g>
</svg>
