<?xml version="1.0" encoding="utf-8"?>
<!-- Generator: Adobe Illustrator 21.1.0, SVG Export Plug-In . SVG Version: 6.00 Build 0)  -->
<svg version="1.1" id="Layer_1" xmlns="http://www.w3.org/2000/svg" xmlns:xlink="http://www.w3.org/1999/xlink" x="0px" y="0px"
	 viewBox="0 0 64 64" style="enable-background:new 0 0 64 64;" xml:space="preserve">
<style type="text/css">
	.st0{fill:#FFFFFF;}
	.st1{fill:#ACBDC5;}
	.st2{fill:#314A52;}
</style>
<g id="King-White">
	<path class="st0" d="M2,40l10,10h42V18H18C9.2,18,2,25.2,2,34V40z"/>
	<path class="st1" d="M42.4,18c-1.1-1.8-2.6-3.3-4.4-4.4c-1.8-1.1-3.9-1.6-6-1.6c-2.1,0-4.2,0.6-6,1.6c-1.4,0.8-2.6,1.8-3.5,3.1
		c-1.6-0.5-3.2-0.7-4.9-0.7C7.9,16,0,23.9,0,33.6c0,4.7,1.8,9.1,5.1,12.4L8,48.8V58c0,3.3,2.7,6,6,6h34c4.4,0,8-3.6,8-8V46l6-6V28
		l-6-8h-4c0,20-18.3,28-36,28h-3.2L8,43.1c-2.5-2.5-4-6-4-9.6C4,26.1,10.1,20,17.6,20c3.6,0,7,1.4,9.6,4l4.9,4.9l2.8-2.8l-2.4-2.4
		L42.4,18z"/>
	<path class="st2" d="M26,8V4h4V0h4v4h4v4h-4v4.2c-0.7-0.1-1.3-0.2-2-0.2c-0.7,0-1.3,0.1-2,0.2V8H26z M60,33.6c0,3.6-1.4,7-4,9.6
		l-4,4V56c0,2.2-1.8,4-4,4h-4v4h4c4.4,0,8-3.6,8-8v-7.2l2.9-2.9c3.3-3.3,5.1-7.8,5.1-12.4C64,23.9,56.1,16,46.4,16
		c-4.7,0-9.1,1.8-12.4,5.1l-2,2l2.8,2.8l2-2c2.5-2.5,6-4,9.6-4C53.9,20,60,26.1,60,33.6z"/>
</g>
</svg>
